<svg width="24" height="25" viewBox="0 0 24 25" fill="none" xmlns="http://www.w3.org/2000/svg">
<g clip-path="url(#clip0_144_2861)">
<path d="M11.8214 17.9286H13.1786" stroke="white" stroke-width="2" stroke-linecap="round" stroke-linejoin="round"/>
<path d="M16.5714 9.7857V7.07141" stroke="white" stroke-width="2" stroke-linecap="round" stroke-linejoin="round"/>
<path d="M19.2857 5.37502C19.2857 5.5978 19.2419 5.81839 19.1566 6.02421C19.0714 6.23003 18.9464 6.41705 18.7889 6.57457C18.6313 6.7321 18.4443 6.85706 18.2385 6.94231C18.0327 7.02757 17.8121 7.07145 17.5893 7.07145H15.5536C15.1037 7.07145 14.6722 6.89272 14.3541 6.57457C14.0359 6.25643 13.8572 5.82494 13.8572 5.37502C13.8572 4.9251 14.0359 4.4936 14.3541 4.17546C14.6722 3.85732 15.1037 3.67859 15.5536 3.67859H17.5893C17.8121 3.67859 18.0327 3.72247 18.2385 3.80772C18.4443 3.89298 18.6313 4.01793 18.7889 4.17546C18.9464 4.33299 19.0714 4.52 19.1566 4.72582C19.2419 4.93164 19.2857 5.15224 19.2857 5.37502V5.37502Z" stroke="white" stroke-width="2" stroke-linecap="round" stroke-linejoin="round"/>
<path d="M10.4643 9.78577V5.03577H6.39282V9.78577" stroke="white" stroke-width="2" stroke-linecap="round" stroke-linejoin="round"/>
<path d="M19.9643 14.5358H5.03573C4.2862 14.5358 3.67859 15.1434 3.67859 15.8929V19.9643C3.67859 20.7139 4.2862 21.3215 5.03573 21.3215H19.9643C20.7138 21.3215 21.3214 20.7139 21.3214 19.9643V15.8929C21.3214 15.1434 20.7138 14.5358 19.9643 14.5358Z" stroke="white" stroke-width="2" stroke-linecap="round" stroke-linejoin="round"/>
<path d="M19.9643 14.5358V11.1429C19.9643 10.783 19.8214 10.4378 19.5668 10.1833C19.3123 9.92875 18.9671 9.78577 18.6072 9.78577H6.39291C6.03297 9.78577 5.68778 9.92875 5.43326 10.1833C5.17875 10.4378 5.03577 10.783 5.03577 11.1429V14.5358" stroke="white" stroke-width="2" stroke-linecap="round" stroke-linejoin="round"/>
</g>
<defs>
<clipPath id="clip0_144_2861">
<rect width="19" height="19" fill="white" transform="translate(3 3)"/>
</clipPath>
</defs>
</svg>
