<svg width="24" height="25" viewBox="0 0 24 25" fill="none" xmlns="http://www.w3.org/2000/svg">
<g clip-path="url(#clip0_144_2872)">
<path d="M20.442 19.0057L4.89272 13.4821C4.63901 13.3919 4.41799 13.2258 4.25867 13.0054C4.09935 12.7849 4.00919 12.5206 4 12.2471V10.7678C4.0011 10.4873 4.08753 10.214 4.24739 9.98551C4.40726 9.75705 4.63271 9.58468 4.89272 9.4921L20.442 3.9821C20.5418 3.94775 20.6483 3.93801 20.7525 3.95368C20.8567 3.96935 20.9558 4.00998 21.0417 4.07224C21.1275 4.1345 21.1976 4.2166 21.2462 4.31182C21.2949 4.40703 21.3206 4.51263 21.3214 4.61996V18.3678C21.3206 18.4751 21.2949 18.5807 21.2462 18.676C21.1976 18.7712 21.1275 18.8533 21.0417 18.9155C20.9558 18.9778 20.8567 19.0184 20.7525 19.0341C20.6483 19.0498 20.5418 19.04 20.442 19.0057Z" stroke="white" stroke-width="2" stroke-linecap="round" stroke-linejoin="round"/>
<path d="M14.6327 16.97C14.5205 17.9127 14.0598 18.7764 13.3442 19.3852C12.6287 19.994 11.7123 20.3021 10.7816 20.2467C9.85085 20.1913 8.97584 19.7767 8.33476 19.0872C7.69368 18.3977 7.33474 17.4853 7.33105 16.5357V14.3778" stroke="white" stroke-width="2" stroke-linecap="round" stroke-linejoin="round"/>
</g>
<defs>
<clipPath id="clip0_144_2872">
<rect width="19" height="19" fill="white" transform="translate(3 2.625)"/>
</clipPath>
</defs>
</svg>
