<svg width="24" height="25" viewBox="0 0 24 25" fill="none" xmlns="http://www.w3.org/2000/svg">
<path d="M15.75 14.5C17.8288 14.5 18.6802 16.6479 19.0239 18.196C19.2095 19.032 18.5333 19.75 17.6769 19.75H16.75M14.75 10.75C16.2688 10.75 17.25 9.51878 17.25 8C17.25 6.48122 16.2688 5.25 14.75 5.25M5.78167 19.75H13.2183C13.7828 19.75 14.227 19.2817 14.1145 18.7285C13.804 17.2012 12.7897 14.5 9.49999 14.5C6.2103 14.5 5.19604 17.2012 4.88548 18.7285C4.77299 19.2817 5.21717 19.75 5.78167 19.75ZM12.25 8C12.25 9.51878 11.0188 10.75 9.49999 10.75C7.98121 10.75 6.74999 9.51878 6.74999 8C6.74999 6.48122 7.98121 5.25 9.49999 5.25C11.0188 5.25 12.25 6.48122 12.25 8Z" stroke="white" stroke-width="1.5" stroke-linecap="round" stroke-linejoin="round"/>
</svg>
